<svg xmlns="http://www.w3.org/2000/svg" width="900" height="475" fill="none"><path fill="url(#a)" d="m388.055 239.731 55.5 58s-44.269 57.221-82.5 81.5c-39.417 25.032-78 40.321-112.5 40.5-46.498.241-76.175-9.971-112.5-39-34.058-27.218-49.797-51.366-61-93.5-10.799-40.616-9.254-67.964 5-107.5 22.023-61.083 59.535-94.1 121.5-113.5 39.516-12.372 66.195-13.906 106-2.5 32.037 9.18 74 42.5 74 42.5l191.94 191.5s18.06 17 30.06 24c12.001 7 38.5 27 80.5 14 18.921-5.856 54-30.5 60.5-62 5.892-28.551 7.055-44.515-9.5-78-11.873-24.017-41.977-44.46-65.5-49V214h-60v-62.269c-20.842 8.12-45.5 31.5-45.5 31.5l-49 47.5-59-58.5 71-67.5s20.15-17.151 35-25c15.944-8.427 25.944-11.378 43.5-15.5 38.977-9.15 76-3 94.5 1.5s38.336 13.408 59 28.5c21.757 15.89 47.005 50.5 47.005 50.5 38.5 62.5 22 135 22 135s-15.96 53.655-38.505 80c-38.139 44.576-75.055 60-137.5 60.5-62.445.5-79.5-15.5-104-33s-219-217.5-219-217.5-28.5-30-65-29-40.5 5.5-53.5 12-56 35-56 88c0 0 1.89 35.456 16 56.5 12.059 17.983 22.773 27.275 43 35 18.118 6.919 30.402 7.371 49.5 4 17.144-3.026 42.115-19.034 55.445-30.231 25-21 69.555-66.269 69.555-66.269Z"/><path fill="url(#b)" fill-opacity=".5" d="M745.5 222c-.914-3.4-3-8.5-3-8.5H830c.2 6.053.85 8 1 12.5.04 1.16.46 7.82.49 9 .06 1.592.03 2.738 0 3.909v5.591H748.5l-.5-6-1-9s-.725-4.615-1.5-7.5Z"/><path fill="url(#c)" d="M609.5 214v-61.5S588 162.5 571 178s-56 53-56 53l-59.5-58.5L490 140l48-45s32-26.5 71.5-32 43.601-5.322 60-3.5c13.5 1.5 12.883 1.656 30.5 6 36.5 9 61.5 30 61.5 30s3 0 34.5 36 33.75 82 33.75 82h-86.952S737.5 199 732 190.5c-9.794-15.136-16.5-20.5-33-31.5-10.366-6.911-29.431-12.314-29.431-12.314V214H609.5Z"/><path fill="url(#d)" d="m444 298-56-58.5-69.5 66.5 61 59.5s8.993-7.444 14.5-12.5c7.527-6.91 11.464-11.091 18.5-18.5C425.466 320.847 444 298 444 298Z"/><path fill="url(#e)" d="m379.5 365.5-61-59.5s-7.757 5.821-13 9.5c-5.676 3.983-15 9.5-15 9.5l60.5 60.5s8.935-5.192 14.5-9c5.565-3.808 14-11 14-11Z"/><path fill="url(#f)" d="m444 298-56-58.5-21 20 60 58.5 17-20Z"/><defs><linearGradient id="a" x1="449.785" x2="449.785" y1="56" y2="420.242" gradientUnits="userSpaceOnUse"><stop stop-color="#F89820"/><stop offset="1" stop-color="#925913"/></linearGradient><linearGradient id="b" x1="787" x2="787" y1="216.5" y2="239" gradientUnits="userSpaceOnUse"><stop stop-color="#2C1B06"/><stop offset=".982" stop-color="#2C1B06" stop-opacity="0"/></linearGradient><linearGradient id="c" x1="642.626" x2="642.626" y1="58.356" y2="231" gradientUnits="userSpaceOnUse"><stop offset=".412" stop-color="#5382A1"/><stop offset="1" stop-color="#1E303B"/></linearGradient><linearGradient id="d" x1="381.25" x2="381.25" y1="239.5" y2="365.5" gradientUnits="userSpaceOnUse"><stop stop-color="#5382A1"/><stop offset="1" stop-color="#1E303B"/></linearGradient><linearGradient id="e" x1="349" x2="307" y1="324.5" y2="359" gradientUnits="userSpaceOnUse"><stop offset=".042" stop-color="#2C1B06"/><stop offset=".845" stop-color="#925913" stop-opacity="0"/></linearGradient><linearGradient id="f" x1="416" x2="396" y1="267" y2="287.5" gradientUnits="userSpaceOnUse"><stop stop-color="#102530"/><stop offset="1" stop-color="#0D202B" stop-opacity="0"/></linearGradient></defs></svg>
